#tb 0: 1/25
#media_type 0: video
#codec_id 0: rawvideo
#dimensions 0: 832x480
#sar 0: 0/1
0,          0,          0,        1,   599040, 0x25267761
0,          1,          1,        1,   599040, 0x4b4b6846
0,          2,          2,        1,   599040, 0x78e251e8
0,          3,          3,        1,   599040, 0xd5b261b0
0,          4,          4,        1,   599040, 0x2c4cf4e1
0,          5,          5,        1,   599040, 0x67dc648f
0,          6,          6,        1,   599040, 0x3c43bffc
0,          7,          7,        1,   599040, 0x43dca917
0,          8,          8,        1,   599040, 0x86c9915e
0,          9,          9,        1,   599040, 0xcfc4f95c
0,         10,         10,        1,   599040, 0x1ad40bab
0,         11,         11,        1,   599040, 0x88b5419e
0,         12,         12,        1,   599040, 0x94e89a06
0,         13,         13,        1,   599040, 0x3c68f4a6
0,         14,         14,        1,   599040, 0xc573ac93
0,         15,         15,        1,   599040, 0x3c401779
0,         16,         16,        1,   599040, 0x33358319
0,         17,         17,        1,   599040, 0xbecb022e
0,         18,         18,        1,   599040, 0x824ca6c1
0,         19,         19,        1,   599040, 0x9d13a2b8
0,         20,         20,        1,   599040, 0xbdd4b44b
0,         21,         21,        1,   599040, 0x7e43e7e9
0,         22,         22,        1,   599040, 0x88c39a97
0,         23,         23,        1,   599040, 0xe0462f05
0,         24,         24,        1,   599040, 0xc5651fd1
